<?xml version="1.0" encoding="iso-8859-1"?>
<!-- Generator: Adobe Illustrator 19.0.0, SVG Export Plug-In . SVG Version: 6.00 Build 0)  -->
<svg version="1.1" id="Layer_1" xmlns="http://www.w3.org/2000/svg" xmlns:xlink="http://www.w3.org/1999/xlink" x="0px" y="0px"
	 viewBox="0 0 511.999 511.999" style="enable-background:new 0 0 511.999 511.999;" xml:space="preserve">
<g>
	<g>
		<path d="M99.59,432.604c-0.309-1.174-10.742-37.095,2.012-54.328c3.107-4.199,2.223-10.124-1.977-13.233
			c-4.198-3.106-10.123-2.223-13.232,1.977c-18.329,24.766-5.374,69.364-5.099,70.406c2.556,9.699,4.402,16.707,2.39,24.868
			c-2.802,11.349-12.595,22.15-29.112,32.105c-10.21,6.156-0.57,22.433,9.768,16.205c20.976-12.643,33.664-27.371,37.712-43.777
			C105.224,453.979,102.487,443.596,99.59,432.604z"/>
	</g>
</g>
<g>
	<g>
		<path d="M451.211,134.529c18.251-34.64,12.57-77.28-14.896-106.054C408.853-0.296,366.523-7.955,331.07,8.663l-0.747-0.783
			c-6.564-6.878-17.499-7.131-24.375-0.568l-17.504,16.71c-3.333,3.18-5.227,7.466-5.334,12.071s1.586,8.975,4.766,12.305
			l0.747,0.782c-8.557,16.24-11.857,34.238-10.113,51.742l-27.114,30.304c-2.375,2.654-3.058,6.414-1.768,9.734
			c6.466,16.645,16.186,31.526,28.888,44.226c9.121,9.121,19.372,16.696,30.587,22.642L162.967,338.582
			c-10.593,9.481-26.771,9.033-36.824-1.022c-10.053-10.055-10.504-26.229-0.992-36.86l99.429-112.249
			c3.464-3.912,3.102-9.891-0.81-13.354c-3.909-3.464-9.889-3.1-13.354,0.809l-99.398,112.213
			c-16.174,18.076-15.408,45.67,1.743,62.821c8.9,8.899,20.607,13.387,32.341,13.386c10.881,0,21.784-3.861,30.48-11.643
			L332.45,212.33c0.009-0.008,0.019-0.014,0.026-0.023l32.143-28.76c18.349-0.201,31.725-2.684,44.14-8.504l0.751,0.786
			c8.726,9.146,21.146,3.652,24.376,0.568l17.504-16.708c3.333-3.18,5.227-7.466,5.334-12.072c0.107-4.604-1.586-8.975-4.766-12.306
			L451.211,134.529z M324.31,194.225c-12.063-5.424-22.945-12.948-32.415-22.417c-9.469-9.468-16.993-20.351-22.416-32.413
			l14.232-15.907c4.251,11.548,10.871,22.385,19.809,31.748c10.732,11.244,23.742,19.239,37.717,23.847L324.31,194.225z
			 M317.204,142.17c-20.282-21.247-25.609-52.017-14.597-78.337l92.171,96.565C367.973,170.173,337.486,163.418,317.204,142.17z
			 M422.037,161.55L302.722,36.551l15.075-14.39l119.315,125L422.037,161.55z M437.228,119.878l-92.172-96.563
			c26.806-9.776,57.294-3.022,77.576,18.226C442.911,62.788,448.24,93.558,437.228,119.878z"/>
	</g>
</g>
<g>
</g>
<g>
</g>
<g>
</g>
<g>
</g>
<g>
</g>
<g>
</g>
<g>
</g>
<g>
</g>
<g>
</g>
<g>
</g>
<g>
</g>
<g>
</g>
<g>
</g>
<g>
</g>
<g>
</g>
</svg>
