<?xml version="1.0" encoding="iso-8859-1"?>
<!-- Generator: Adobe Illustrator 19.0.0, SVG Export Plug-In . SVG Version: 6.00 Build 0)  -->
<svg version="1.1" id="Layer_1" xmlns="http://www.w3.org/2000/svg" xmlns:xlink="http://www.w3.org/1999/xlink" x="0px" y="0px"
	 viewBox="0 0 512 512" style="enable-background:new 0 0 512 512;" xml:space="preserve">
<g transform="translate(1 1)">
	<g>
		<g>
			<path d="M506.054,313.027c-15.36-20.48-30.72-20.48-68.267-0.853L364.4,357.4c-10.24,5.973-33.28,7.68-54.613,7.68
				c4.267-7.68,2.56-17.067-5.12-28.16c-13.653-19.627-36.693-31.573-61.44-31.573h-33.28c-17.92,0-34.987-5.12-48.64-15.36
				c-30.791-23.093-78.94,2.035-102.4,17.023v-17.876H-0.826V511h59.733v-25.6H169.84c17.067,0,34.987-1.707,52.053-3.413
				l110.933-17.067c4.267,0,8.533-0.853,11.947-1.707c10.24-1.707,19.627-6.827,28.16-14.507L501.787,347.16
				C512.027,338.627,513.734,323.267,506.054,313.027z M41.84,493.933h-25.6V306.2h25.6V319v166.4V493.933z M491.547,335.213
				L361.84,435.907l-0.853,0.853c-5.12,5.973-11.947,9.387-18.773,10.24h-0.853c-3.413,0.853-5.973,0.853-9.387,0.853
				l-112.64,17.067c-16.213,2.56-33.28,3.413-49.493,3.413H58.907v-140.8c20.48-14.507,68.267-41.813,92.16-23.04
				c16.213,11.947,37.547,18.773,58.88,18.773h33.28c19.627,0,36.693,8.533,48.64,24.747c3.413,5.12,4.267,10.24,3.413,11.947
				c-2.56,4.267-12.8,5.973-23.893,6.827c-2.139,0-4.277,0-6.205,0c-1.169-0.55-2.525-0.853-4.035-0.853h-82.773
				c-26.453,0-42.667,12.8-42.667,34.133c0,5.12,3.413,8.533,8.533,8.533c5.12,0,8.533-4.267,8.533-8.533s0-17.067,25.6-17.067
				h82.773c0.015,0,0.028-0.002,0.043-0.002l-0.043,0.855c2.56,0,5.973,0,11.093,0c0.853,0,2.56,0,4.267,0
				c40.107,0.853,77.653,0,97.28-10.24l73.387-45.227c35.84-17.92,39.253-13.653,46.08-3.413
				C494.96,327.533,494.96,332.653,491.547,335.213z"/>
			<path d="M186.907,246.467c26.888,0,50.377-13.563,64.081-34.268l50.265,13.056c-2.203,6.686-3.412,13.813-3.412,21.212
				c0,37.547,30.72,68.267,68.267,68.267s68.267-30.72,68.267-68.267c0-28.227-17.365-52.592-41.938-62.95l23.567-65.849
				c3.198,0.518,6.48,0.8,9.837,0.8c33.28,0,59.733-26.453,59.733-59.733C485.574,25.453,459.12-1,425.84-1
				s-59.733,26.453-59.733,59.733c0,6.033,0.88,11.838,2.502,17.305l-115.908,53.787c-13.403-22.217-37.755-36.959-65.794-36.959
				c-42.667,0-76.8,34.133-76.8,76.8S144.24,246.467,186.907,246.467z M417.307,246.467c0,28.16-23.04,51.2-51.2,51.2
				s-51.2-23.04-51.2-51.2c0-21.711,13.702-40.367,32.88-47.778c9.691-3.382,20.489-3.9,31.12-0.862
				c1.429,0.572,2.855,0.655,4.188,0.366C402.969,205.24,417.307,224.256,417.307,246.467z M425.84,16.067
				c23.893,0,42.667,18.773,42.667,42.667S449.734,101.4,425.84,101.4s-42.667-18.773-42.667-42.667S401.947,16.067,425.84,16.067z
				 M260.294,144.92l115.424-53.468c6.117,9.422,14.825,16.958,25.165,21.652l-22.829,65.95c-3.823-0.617-7.663-0.884-11.48-0.841
				c-0.156-0.001-0.31-0.012-0.466-0.012c-23.642,0-44.569,12.186-56.833,30.581l-49.834-13.514c0.557-1.67,1.064-3.388,1.531-5.139
				c0.609-2.236,1.116-4.514,1.525-6.829c0.021-0.117,0.042-0.234,0.062-0.351c0.158-0.92,0.301-1.844,0.427-2.775
				c0.04-0.295,0.075-0.594,0.112-0.891c0.099-0.807,0.195-1.615,0.27-2.43c0.052-0.553,0.086-1.115,0.126-1.675
				c0.042-0.609,0.094-1.214,0.123-1.827c0.058-1.214,0.092-2.44,0.092-3.684c0-1.085-0.029-2.155-0.08-3.215
				c-0.191-4.721-0.807-9.324-1.8-13.78C261.348,150.135,260.824,147.57,260.294,144.92z M186.907,109.933
				c22.773,0,42.345,12.391,52.436,30.876c-0.33,1.896-0.174,3.674,0.471,4.964c4.267,7.68,5.973,16.213,5.973,24.747
				c0,9.387-2.56,18.773-6.827,27.307c-0.308,0.923-0.614,1.846-0.801,2.77c-10.391,17.334-29.34,28.804-51.252,28.804
				c-33.28,0-59.733-26.453-59.733-59.733C127.174,136.387,153.627,109.933,186.907,109.933z"/>
			<path d="M152.774,178.2c5.12,0,8.533-3.413,8.533-8.533c0-14.507,11.093-25.6,25.6-25.6c5.12,0,8.533-3.413,8.533-8.533
				S192.027,127,186.907,127c-23.893,0-42.667,18.773-42.667,42.667C144.24,174.787,147.654,178.2,152.774,178.2z"/>
			<path d="M366.107,212.333c-18.773,0-34.133,15.36-34.133,34.133c0,5.12,3.413,8.533,8.533,8.533c5.12,0,8.533-3.413,8.533-8.533
				c0-9.387,7.68-17.067,17.067-17.067c5.12,0,8.533-3.413,8.533-8.533S371.227,212.333,366.107,212.333z"/>
			<path d="M408.774,67.267c5.12,0,8.533-3.413,8.533-8.533s3.413-8.533,8.533-8.533s8.533-3.413,8.533-8.533
				s-3.413-8.533-8.533-8.533c-14.507,0-25.6,11.093-25.6,25.6C400.24,63.853,403.654,67.267,408.774,67.267z"/>
		</g>
	</g>
</g>
<g>
</g>
<g>
</g>
<g>
</g>
<g>
</g>
<g>
</g>
<g>
</g>
<g>
</g>
<g>
</g>
<g>
</g>
<g>
</g>
<g>
</g>
<g>
</g>
<g>
</g>
<g>
</g>
<g>
</g>
</svg>
